<svg width="259" height="53" viewBox="0 0 259 53" fill="none" xmlns="http://www.w3.org/2000/svg">
<path d="M-0.00128126 44.1953L6.04672 9.82731H15.0947C18.3747 9.82731 20.7907 10.9473 22.3427 13.1873C23.8947 15.4273 24.2627 18.8513 23.4467 23.4593L22.2707 30.1553C21.4227 35.1153 19.9347 38.6993 17.8067 40.9073C15.6947 43.0993 12.7667 44.1953 9.02272 44.1953H-0.00128126ZM10.0547 35.4593H10.6787C11.2707 35.4593 11.7267 35.2993 12.0467 34.9793C12.3667 34.6593 12.6147 33.9633 12.7907 32.8913L14.9987 20.3873C15.1267 19.6673 15.0787 19.1313 14.8547 18.7793C14.6307 18.4113 14.2707 18.2273 13.7747 18.2273H13.0787L10.0547 35.4593ZM19.8227 44.1953L31.1987 9.82731H41.1587L40.3667 44.1953H32.0387L33.8147 25.6433L34.1747 21.7553H34.1507L33.1667 25.6433L28.3187 44.1953H19.8227ZM25.2467 39.0833L27.4787 32.1713H36.9827L36.9107 39.0833H25.2467ZM43.1065 44.1953L48.2905 14.8193H56.8105L51.6265 44.1953H43.1065ZM43.8745 18.7073L45.4345 9.82731H61.4185L59.8585 18.7073H43.8745ZM66.6062 44.6753C63.4542 44.6753 61.1902 43.6993 59.8142 41.7473C58.4542 39.7793 58.0862 37.0433 58.7102 33.5393L62.8862 9.82731H71.4062L67.1822 33.9473C67.0542 34.5713 67.0542 35.0193 67.1822 35.2913C67.3262 35.5633 67.5742 35.6993 67.9262 35.6993C68.2782 35.6993 68.5422 35.5713 68.7182 35.3153C68.8942 35.0433 69.0382 34.5953 69.1502 33.9713L73.4222 9.82731H81.7742L77.5022 33.9713C76.8782 37.4913 75.6622 40.1553 73.8542 41.9633C72.0462 43.7713 69.6302 44.6753 66.6062 44.6753ZM78.8233 44.1953L84.8713 9.82731H95.4553L94.7113 30.6113H94.7833L101.071 9.82731H111.919L105.871 44.1953H97.7353L99.8473 32.1713L100.927 26.9393H100.855L95.3833 44.1953H89.4313L89.9113 26.9153H89.8393L89.0233 32.1473L86.9353 44.1953H78.8233Z" fill="white"/>
<path d="M147.852 24.0334L147.124 28.1614H143.131C137.378 28.1614 131.9 32.7432 130.899 38.4174L128.47 52.1948H124.274L128.51 28.1756H132.705L133.433 24.0476H147.835L147.852 24.0334ZM137.685 0.0141883L133.45 24.0334H129.254L128.527 28.1614H114.124L114.852 24.0334H118.846C124.598 24.0334 130.077 19.4516 131.077 13.7774L133.507 0H137.702L137.685 0.0141883Z" fill="#EAFF01"/>
<path d="M156.722 44.5553C154.962 44.5553 153.666 43.9313 152.834 42.6833C152.002 41.4193 151.786 39.6033 152.186 37.2353L155.834 16.5233C156.25 14.1713 156.994 12.4113 158.066 11.2433C159.154 10.0593 160.554 9.46731 162.266 9.46731C163.562 9.46731 164.618 9.81931 165.434 10.5233C166.25 11.2273 166.754 12.0913 166.946 13.1153C167.154 14.1233 167.226 15.0673 167.162 15.9473C167.098 16.8273 167.066 17.2673 167.066 17.2673L162.842 18.1313C162.842 18.1313 162.866 17.8593 162.914 17.3153C162.962 16.7553 162.986 16.2113 162.986 15.6833C163.002 15.1393 162.922 14.6833 162.746 14.3153C162.586 13.9473 162.282 13.7633 161.834 13.7633C161.466 13.7633 161.162 13.9233 160.922 14.2433C160.682 14.5473 160.506 15.0593 160.394 15.7793L156.41 38.3873C156.282 39.0273 156.306 39.5073 156.482 39.8273C156.658 40.1313 156.962 40.2833 157.394 40.2833C157.842 40.2833 158.21 40.0833 158.498 39.6833C158.802 39.2833 159.01 38.7713 159.122 38.1473L160.634 29.5553H159.314L160.01 25.6913H165.53L163.442 37.5473C163.01 39.9473 162.218 41.7153 161.066 42.8513C159.914 43.9873 158.466 44.5553 156.722 44.5553ZM164.831 44.1953L170.903 9.82731H180.479L179.735 14.0513H174.503L169.919 39.9713H175.199L174.455 44.1953H164.831ZM170.399 28.8833L171.143 24.6593H176.711L175.967 28.8833H170.399ZM176.561 44.1953L182.633 9.82731H187.313L186.017 35.0753L193.409 9.82731H198.257L192.185 44.1953H188.033L189.977 33.0353L191.801 24.2993L186.065 44.1953H182.657L183.953 24.2993L182.633 33.0113L180.689 44.1953H176.561ZM200.144 44.5553C198.848 44.5553 197.824 44.2033 197.072 43.4993C196.336 42.7953 195.88 41.8833 195.704 40.7633C195.512 39.6273 195.48 38.5313 195.608 37.4753C195.736 36.4193 195.8 35.8913 195.8 35.8913L199.952 35.0753C199.952 35.0753 199.888 35.5153 199.76 36.3953C199.632 37.2593 199.56 37.9953 199.544 38.6033C199.528 39.1953 199.592 39.6513 199.736 39.9713C199.896 40.2753 200.16 40.4273 200.528 40.4273C200.848 40.4273 201.112 40.3073 201.32 40.0673C201.528 39.8273 201.688 39.4193 201.8 38.8433L202.376 35.6753C202.616 34.2513 202.72 33.0513 202.688 32.0753C202.656 31.0993 202.152 29.4593 201.176 27.1553C200.056 24.5633 199.384 22.6833 199.16 21.5153C198.952 20.3313 199.008 18.8113 199.328 16.9553L199.616 15.2993C199.968 13.3473 200.632 11.8913 201.608 10.9313C202.584 9.95531 203.88 9.46731 205.496 9.46731C206.728 9.46731 207.728 9.76331 208.496 10.3553C209.264 10.9473 209.744 11.7233 209.936 12.6833C210.144 13.6433 210.2 14.6753 210.104 15.7793C210.024 16.8673 209.984 17.4113 209.984 17.4113L205.832 18.2753C205.832 18.2753 205.872 17.9153 205.952 17.1953C206.032 16.4753 206.08 15.8113 206.096 15.2033C206.112 14.5953 206.032 14.1713 205.856 13.9313C205.68 13.6753 205.456 13.5473 205.184 13.5473C204.864 13.5473 204.592 13.6673 204.368 13.9073C204.16 14.1473 203.992 14.5953 203.864 15.2513L203.576 16.8593C203.336 18.2193 203.248 19.3473 203.312 20.2433C203.376 21.1393 203.904 22.6433 204.896 24.7553C206.032 27.1713 206.696 29.0593 206.888 30.4193C207.096 31.7793 207.008 33.5553 206.624 35.7473L206.12 38.5793C205.784 40.4673 205.104 41.9393 204.08 42.9953C203.056 44.0353 201.744 44.5553 200.144 44.5553ZM220.682 44.1953L226.754 9.82731H231.074L225.002 44.1953H220.682ZM213.626 44.1953L219.698 9.82731H224.018L217.946 44.1953H213.626ZM218.69 28.8113L219.41 24.5873H226.202L225.482 28.8113H218.69ZM233.735 44.5553C231.895 44.5553 230.591 43.9553 229.823 42.7553C229.055 41.5393 228.871 39.7793 229.271 37.4753L234.143 9.82731H238.463L233.543 37.8353C233.399 38.6193 233.399 39.1873 233.543 39.5393C233.687 39.8913 233.975 40.0673 234.407 40.0673C234.839 40.0673 235.183 39.8833 235.439 39.5153C235.711 39.1313 235.919 38.5713 236.063 37.8353L240.983 9.82731H245.135L240.239 37.5713C239.823 39.8913 239.087 41.6353 238.031 42.8033C236.975 43.9713 235.543 44.5553 233.735 44.5553ZM242.148 44.1953L248.22 9.82731H253.764C255.38 9.82731 256.628 10.3633 257.508 11.4353C258.388 12.4913 258.676 13.8433 258.372 15.4913L257.22 22.1633C257.028 23.2673 256.588 24.2353 255.9 25.0673C255.228 25.8993 254.372 26.4033 253.332 26.5793C254.26 26.8033 254.956 27.4033 255.42 28.3793C255.9 29.3553 256.028 30.4833 255.804 31.7633L254.7 38.0513C254.348 40.0353 253.62 41.5553 252.516 42.6113C251.412 43.6673 249.964 44.1953 248.172 44.1953H242.148ZM247.188 40.1153H248.028C248.652 40.1153 249.18 39.8753 249.612 39.3953C250.06 38.8993 250.356 38.2353 250.5 37.4033L251.652 30.9473C251.78 30.1473 251.716 29.5713 251.46 29.2193C251.204 28.8673 250.7 28.6913 249.948 28.6913H248.124L248.82 24.7793H250.716C251.308 24.7793 251.804 24.5473 252.204 24.0833C252.604 23.6033 252.884 22.8993 253.044 21.9713L254.076 16.1633C254.22 15.4273 254.172 14.8833 253.932 14.5313C253.692 14.1633 253.252 13.9793 252.612 13.9793H251.796L247.188 40.1153Z" fill="white"/>
</svg>
